<?xml version="1.0" standalone="no"?>
<!DOCTYPE svg PUBLIC "-//W3C//DTD SVG 20010904//EN"
 "http://www.w3.org/TR/2001/REC-SVG-20010904/DTD/svg10.dtd">
<svg version="1.0" xmlns="http://www.w3.org/2000/svg"
 width="3280.000000pt" height="3280.000000pt" viewBox="0 0 3280.000000 3280.000000"
 preserveAspectRatio="xMidYMid meet">
<metadata>
Created by potrace 1.11, written by Peter Selinger 2001-2013
</metadata>
<g transform="translate(0.000000,3280.000000) scale(0.100000,-0.100000)"
fill="#000000" stroke="none">
<path d="M7310 16983 c-229 -41 -458 -177 -570 -338 -40 -59 -42 -73 -20 -159
41 -160 135 -282 270 -350 91 -45 109 -47 80 -7 -60 85 -71 209 -26 306 53
116 177 212 313 240 197 42 400 -6 597 -139 38 -25 73 -43 77 -39 26 26 40
401 16 421 -21 17 -154 51 -267 67 -132 19 -359 18 -470 -2z"/>
<path d="M8926 16972 c-2 -4 -3 -435 -1 -957 3 -1014 3 -1000 53 -1145 131
-377 516 -580 1057 -557 266 11 458 64 626 172 168 108 288 279 345 490 19 70
30 500 35 1435 l4 565 -97 3 -97 3 -56 -53 c-31 -28 -79 -67 -107 -86 l-50
-34 6 -126 c3 -70 7 -442 8 -827 3 -695 2 -701 -19 -778 -31 -109 -67 -171
-143 -248 -70 -71 -149 -115 -261 -146 -92 -26 -406 -26 -499 0 -109 29 -189
74 -261 146 -73 74 -108 137 -140 256 -22 80 -22 85 -20 988 l2 907 -190 0
c-104 0 -192 -3 -195 -8z"/>
<path d="M12498 16973 c23 -2 59 -2 80 0 20 2 1 4 -43 4 -44 0 -61 -2 -37 -4z"/>
<path d="M14597 16974 c-8 -9 -7 -705 2 -814 l6 -75 54 -3 c30 -2 65 -1 78 3
l23 5 0 285 0 285 251 0 c275 0 342 -9 456 -60 76 -34 157 -108 189 -172 79
-157 72 -429 -16 -585 -17 -29 -30 -60 -30 -68 0 -9 -8 -19 -17 -22 -10 -4
-38 -24 -63 -46 -56 -50 -162 -101 -260 -126 -66 -16 -101 -18 -292 -13 l-217
5 -3 86 -3 86 -192 3 -193 2 3 -382 c1 -211 0 -527 -3 -703 l-5 -320 195 0
195 0 -4 451 -4 452 264 5 c210 4 283 9 359 25 233 49 394 134 533 282 162
173 237 403 224 689 -7 152 -25 229 -79 341 -70 147 -216 272 -385 331 -143
50 -165 52 -623 56 -239 3 -439 1 -443 -3z"/>
<path d="M17023 16968 c-6 -7 -47 -78 -92 -156 l-82 -144 0 -231 c0 -128 3
-332 7 -455 7 -221 7 -223 -14 -229 -21 -5 -21 -5 -23 -567 -1 -308 -3 -624
-3 -701 l-1 -140 700 0 700 0 13 145 c9 101 10 152 3 167 l-11 23 -504 0 -504
0 -7 158 c-4 86 -4 604 0 1150 l7 992 -90 0 c-60 0 -93 -4 -99 -12z"/>
<path d="M18200 16970 c0 -9 155 -315 167 -329 1 -2 5 -2 9 1 7 8 43 321 37
331 -7 11 -213 9 -213 -3z"/>
<path d="M20294 16970 c-6 -6 -100 -215 -210 -465 l-199 -455 -157 0 -156 0
-11 30 c-5 17 -14 30 -18 30 -4 0 -50 -75 -102 -166 -121 -213 -149 -256 -160
-249 -5 3 -132 241 -283 530 -150 288 -276 524 -279 525 -10 0 -17 -57 -45
-362 l-26 -288 223 -427 223 -427 -13 -445 c-7 -253 -8 -448 -3 -453 5 -5 94
-7 198 -6 l189 3 -4 456 -4 456 486 852 c268 468 487 855 487 861 0 13 -123
13 -136 0z"/>
<path d="M21177 16973 c-3 -5 -13 -86 -23 -181 l-18 -173 42 -422 c24 -232 43
-428 42 -434 0 -10 -25 -13 -89 -13 l-89 0 -6 -37 c-11 -73 -146 -1311 -146
-1342 l0 -31 164 0 c91 0 167 4 170 8 2 4 21 190 41 413 29 328 148 1410 171
1562 3 20 11 37 17 37 7 0 145 -321 307 -712 162 -392 322 -778 355 -858 l61
-145 159 0 160 0 12 25 c18 40 454 1033 464 1058 l9 22 -183 -2 -182 -3 -120
-287 c-83 -199 -125 -288 -135 -288 -11 0 -41 63 -100 208 -164 404 -146 370
-188 374 l-37 3 0 90 0 90 -136 335 c-75 184 -162 414 -194 510 -32 96 -62
181 -68 188 -7 9 -66 12 -233 12 -122 0 -225 -3 -227 -7z"/>
<path d="M23396 16955 l-6 -25 -149 0 -148 0 -53 -147 c-29 -82 -104 -270
-166 -420 -63 -149 -114 -276 -114 -282 0 -8 53 -11 182 -9 l182 3 62 140 c36
83 67 140 75 140 11 0 18 -34 29 -135 l15 -135 178 0 177 0 -4 25 c-3 14 -24
210 -46 435 -23 226 -43 416 -45 423 -3 8 -29 12 -84 12 -76 0 -79 -1 -85 -25z"/>
<path d="M25738 16935 c-32 -24 -88 -60 -125 -80 -38 -21 -70 -39 -72 -41 -9
-8 96 -155 114 -159 34 -7 580 -23 586 -16 4 3 14 71 22 151 21 207 42 190
-241 189 l-227 0 -57 -44z"/>
<path d="M26935 16968 c-3 -7 -2 -422 3 -923 4 -500 4 -1083 0 -1295 -4 -212
-6 -391 -3 -398 3 -10 48 -12 197 -10 l193 3 -4 478 -4 477 247 -2 248 -3 120
-195 c66 -107 201 -320 300 -472 206 -318 213 -324 309 -314 47 4 298 62 306
69 1 1 4 13 8 27 5 22 -10 46 -101 160 -207 260 -614 823 -603 834 2 2 31 19
64 36 308 167 485 455 485 789 0 408 -234 673 -650 736 -129 20 -1108 22
-1115 3z m995 -333 c255 -69 363 -222 347 -493 -13 -221 -113 -371 -315 -469
l-97 -48 -268 2 c-148 1 -271 4 -273 6 -3 2 -2 235 2 517 l7 512 266 -5 c212
-3 279 -8 331 -22z"/>
<path d="M13185 16869 c-98 -78 -283 -156 -429 -180 -83 -14 -83 -29 -1 -29
72 0 209 -36 276 -71 73 -39 141 -108 172 -173 73 -154 62 -415 -24 -577 -79
-148 -291 -272 -469 -273 -36 -1 -143 0 -237 2 l-173 2 0 545 0 545 -82 0 -81
0 4 -452 4 -453 -113 -5 -112 -5 -6 -655 c-4 -360 -7 -675 -8 -700 l-1 -45
195 0 195 0 -3 451 -3 452 263 5 c230 4 278 8 379 30 197 42 340 114 471 236
137 128 216 277 254 478 12 67 15 123 11 238 -5 171 -24 254 -85 370 -49 96
-172 218 -268 268 -40 20 -74 37 -75 36 -2 0 -26 -18 -54 -40z"/>
<path d="M24711 16233 l4 -478 -32 -3 -33 -3 0 -322 c0 -177 -3 -494 -7 -704
l-6 -383 796 0 c584 0 798 3 803 11 13 21 42 293 33 310 -5 9 -14 18 -21 21
-7 2 -110 1 -228 -3 -118 -4 -389 -7 -601 -8 l-387 -1 -7 238 c-7 215 0 600
11 611 9 9 487 12 717 4 157 -5 242 -5 247 2 4 6 11 55 15 110 l7 101 -70 -10
c-61 -8 -73 -7 -103 10 -19 11 -50 44 -69 73 l-35 53 -104 -6 c-58 -4 -219 -4
-358 0 l-253 7 2 391 3 391 98 3 c99 3 106 6 87 43 -10 18 -24 19 -262 19
l-251 0 4 -477z"/>
<path d="M23657 15953 c-3 -10 -9 -49 -13 -88 -12 -122 -2 -115 -159 -115
-130 0 -135 -1 -135 -21 0 -11 15 -152 34 -312 19 -161 47 -463 61 -672 15
-209 28 -386 30 -392 3 -10 48 -13 180 -13 l175 0 0 29 c0 16 -16 180 -35 363
-19 183 -55 535 -80 783 -25 247 -48 451 -50 453 -2 2 -6 -5 -8 -15z"/>
<path d="M6826 15789 c66 -71 191 -140 599 -333 129 -61 267 -141 327 -189 52
-41 86 -97 104 -170 31 -119 -12 -245 -116 -340 -233 -213 -669 -164 -1014
114 -62 49 -79 59 -100 53 -16 -4 -28 -15 -31 -28 -5 -25 -45 -375 -45 -394 0
-27 244 -117 410 -151 620 -126 1114 73 1267 511 21 59 27 98 30 198 8 200
-31 308 -160 446 -82 88 -129 123 -263 198 l-102 57 -88 -16 c-253 -44 -591
-20 -787 56 -63 25 -66 24 -31 -12z"/>
</g>
</svg>
