<?xml version="1.0" standalone="no"?>
<!DOCTYPE svg PUBLIC "-//W3C//DTD SVG 20010904//EN"
 "http://www.w3.org/TR/2001/REC-SVG-20010904/DTD/svg10.dtd">
<svg version="1.0" xmlns="http://www.w3.org/2000/svg"
 width="904.000000pt" height="723.000000pt" viewBox="0 0 904.000000 723.000000"
 preserveAspectRatio="xMidYMid meet">
<metadata>
Created by potrace 1.16, written by Peter Selinger 2001-2019
</metadata>
<g transform="translate(0.000000,723.000000) scale(0.100000,-0.100000)"
fill="#000000" stroke="none">
<path d="M20 3605 l0 -3605 4510 0 4510 0 0 3605 0 3605 -4510 0 -4510 0 0
-3605z m3937 2423 c6 -7 58 -148 117 -313 59 -165 112 -305 117 -311 6 -8 36
-5 106 9 76 16 138 20 278 20 168 1 223 -5 380 -38 l31 -7 114 319 c62 175
118 321 124 325 6 4 318 8 694 8 569 0 684 -2 688 -14 4 -11 -67 -462 -92
-578 l-6 -28 -198 0 c-146 0 -200 -3 -208 -12 -13 -17 -242 -585 -242 -601 0
-7 25 -50 56 -97 302 -461 341 -1080 98 -1563 -228 -452 -645 -771 -1136 -869
-162 -32 -434 -32 -595 0 -495 99 -910 416 -1136 869 -70 139 -126 322 -147
483 -14 105 -14 330 0 430 34 236 126 476 260 675 22 33 40 66 40 73 0 16
-229 583 -242 600 -8 9 -62 12 -208 12 l-198 0 -6 28 c-26 128 -95 569 -92
579 8 19 1389 19 1403 1z m-299 -3843 c79 -24 142 -88 142 -145 0 -18 -6 -20
-60 -20 -50 0 -63 4 -84 25 -44 44 -154 28 -145 -20 4 -20 26 -30 146 -65 121
-34 176 -104 153 -191 -12 -45 -61 -94 -109 -111 -60 -21 -168 -15 -225 12
-55 26 -106 95 -106 142 0 27 1 28 55 28 38 0 58 -5 67 -16 50 -62 56 -65 115
-62 40 2 59 8 67 21 14 22 -1 48 -35 58 -175 51 -196 60 -226 91 -42 43 -50
86 -28 143 20 54 68 93 133 111 63 17 79 17 140 -1z m1098 -11 c54 -23 119
-89 144 -147 80 -182 -52 -383 -250 -381 -77 1 -123 19 -180 70 -55 50 -82
105 -88 180 -16 207 185 357 374 278z m-2689 4 c6 -7 43 -91 84 -185 41 -95
77 -173 80 -173 3 0 39 78 79 173 40 94 78 178 83 185 6 7 34 12 73 12 45 0
64 -4 64 -12 0 -7 -52 -128 -114 -268 l-114 -255 -71 0 -72 0 -115 258 c-63
141 -114 262 -114 267 0 15 126 13 137 -2z m782 -175 c47 -100 89 -185 93
-189 4 -4 49 79 100 185 l92 192 70 -3 71 -3 0 -265 0 -265 -65 0 -65 0 -5
124 -5 124 -59 -127 -59 -126 -68 0 c-80 0 -71 -9 -145 153 l-49 107 -5 -127
-5 -128 -62 -3 -63 -3 0 264 c0 145 3 267 7 271 4 4 36 6 72 4 l65 -3 85 -182z
m1506 122 l0 -60 -90 -5 -90 -5 -3 -202 -2 -203 -65 0 -65 0 0 205 0 204 -92
3 -93 3 -3 49 c-5 82 -22 77 255 74 l248 -3 0 -60z m1005 33 c64 -37 90 -88
90 -172 0 -72 -13 -107 -54 -145 -14 -14 -26 -29 -26 -33 0 -5 20 -38 45 -72
25 -35 45 -69 45 -75 0 -7 -26 -11 -74 -11 l-74 0 -41 65 c-40 64 -41 65 -85
65 l-45 0 -3 -62 -3 -63 -62 -3 -63 -3 0 264 c0 145 3 267 8 271 4 4 72 6 152
4 136 -3 148 -5 190 -30z m600 -33 l0 -65 -135 0 -135 0 0 -40 0 -39 113 -3
112 -3 3 -57 3 -58 -116 0 -115 0 0 -40 0 -40 135 0 135 0 0 -65 0 -65 -200 0
-200 0 0 263 c0 145 3 267 7 270 3 4 93 7 200 7 l193 0 0 -65z m510 0 l0 -65
-135 0 -135 0 0 -55 0 -54 113 -3 112 -3 3 -62 3 -63 -115 0 -115 0 -3 -82 -3
-83 -62 -3 -63 -3 0 264 c0 145 3 267 7 270 3 4 93 7 200 7 l193 0 0 -65z
m291 -40 c36 -54 71 -101 76 -102 6 -2 39 40 73 94 35 54 68 101 74 105 18 12
136 9 136 -3 0 -6 -49 -83 -110 -171 l-110 -160 0 -100 0 -99 -62 3 -63 3 -5
105 -5 105 -107 156 c-59 86 -104 159 -101 163 4 4 37 6 73 4 l65 -3 66 -100z"/>
<path d="M2780 5842 c0 -19 40 -224 45 -233 4 -5 83 -9 184 -9 l177 0 218
-542 c169 -420 557 -1381 826 -2048 l18 -45 332 0 332 0 27 65 c15 36 254 629
531 1317 l504 1253 181 2 180 3 16 78 c10 43 20 98 24 123 l6 44 -517 -2 -518
-3 -129 -360 c-71 -198 -183 -511 -249 -695 -66 -184 -131 -364 -144 -399 -13
-35 -24 -67 -24 -72 0 -5 19 -18 42 -30 120 -61 228 -224 249 -374 35 -253
-123 -495 -370 -569 -77 -23 -213 -21 -293 4 -182 56 -325 220 -359 412 -35
195 68 418 242 523 32 20 59 41 59 47 0 8 -501 1412 -535 1501 -7 16 -41 17
-531 17 -288 0 -524 -4 -524 -8z"/>
<path d="M4420 5245 c-8 -2 -48 -9 -87 -15 -40 -7 -73 -16 -73 -21 0 -5 63
-185 141 -401 78 -216 146 -405 151 -420 12 -34 52 -38 68 -8 19 36 300 824
295 829 -3 2 -33 11 -68 19 -57 13 -391 26 -427 17z"/>
<path d="M3367 4557 c-63 -97 -135 -283 -169 -440 -31 -144 -31 -396 1 -546
125 -590 591 -1033 1178 -1120 104 -16 318 -13 431 5 113 18 299 77 399 127
325 164 585 461 704 803 52 151 72 272 73 454 1 188 -14 280 -70 450 -36 107
-120 280 -140 287 -6 2 -43 -77 -84 -179 -205 -512 -643 -1595 -651 -1610 -9
-17 -38 -18 -460 -18 l-450 0 -23 53 c-13 28 -178 436 -366 905 -189 468 -347
852 -351 852 -4 0 -13 -10 -22 -23z"/>
<path d="M4502 4164 c-72 -19 -107 -39 -156 -87 -59 -60 -88 -126 -94 -217 -8
-139 58 -249 186 -312 57 -28 76 -33 142 -33 129 1 238 68 295 181 96 189 -10
414 -220 469 -71 18 -84 18 -153 -1z"/>
<path d="M4572 2050 c-96 -59 -96 -200 0 -261 26 -15 46 -19 88 -17 91 6 144
62 144 150 0 113 -134 187 -232 128z"/>
<path d="M5140 1985 l0 -75 70 0 c83 0 110 18 110 75 0 57 -27 75 -110 75
l-70 0 0 -75z"/>
</g>
</svg>
