<svg width="410.039990234375px" height="112.439990234375px" xmlns="http://www.w3.org/2000/svg" viewBox="44.980004882812494 18.7800048828125 410.039990234375 112.439990234375" style="background: rgb(0, 0, 0) none repeat scroll 0% 0%;" preserveAspectRatio="xMidYMid"><defs><filter id="editing-hover" x="-100%" y="-100%" width="300%" height="300%"><feFlood flood-color="#3f3f3f" result="flood"></feFlood><feComposite operator="in" in2="SourceAlpha" in="flood" result="shadow"></feComposite><feOffset dx="-16.3" dy="-8.8" in="SourceGraphic" result="offset-1"></feOffset><feOffset dx="16.3" dy="8.8" in="shadow" result="offset-2"></feOffset><feMerge><feMergeNode in="offset-2"></feMergeNode><feMergeNode in="offset-1"></feMergeNode></feMerge></filter></defs><g filter="url(#editing-hover)"><g transform="translate(107.27539825439453, 91.830078125)"><path d="M15.64-33.20L15.64-33.20Q19.67-33.20 23.69-31.61L23.69-31.61L22.84-26.73L22.04-26.53L22.04-26.53Q20.20-27.98 18.55-28.68L18.55-28.68L18.55-28.68Q16.90-29.37 15.11-29.37L15.11-29.37L15.11-29.37Q12.28-29.37 10.63-27.89L10.63-27.89L10.63-27.89Q8.98-26.40 8.98-24.49L8.98-24.49L8.98-24.49Q8.98-22.57 10.59-21.38L10.59-21.38L10.59-21.38Q12.21-20.20 15.58-18.74L15.58-18.74L15.58-18.74Q18.55-17.42 20.30-16.37L20.30-16.37L20.30-16.37Q22.04-15.31 23.33-13.56L23.33-13.56L23.33-13.56Q24.62-11.81 24.62-9.31L24.62-9.31L24.62-9.31Q24.62-6.73 23.23-4.52L23.23-4.52L23.23-4.52Q21.85-2.31 19.17-0.96L19.17-0.96L19.17-0.96Q16.50 0.40 12.80 0.40L12.80 0.40L12.80 0.40Q10.49 0.40 7.95-0.17L7.95-0.17L7.95-0.17Q5.41-0.73 3.23-1.85L3.23-1.85L3.83-7.06L4.49-7.33L4.49-7.33Q6.34-5.48 8.81-4.46L8.81-4.46L8.81-4.46Q11.29-3.43 13.40-3.43L13.40-3.43L13.40-3.43Q16.17-3.43 17.95-4.92L17.95-4.92L17.95-4.92Q19.73-6.40 19.73-8.51L19.73-8.51L19.73-8.51Q19.73-10.49 18.12-11.68L18.12-11.68L18.12-11.68Q16.50-12.87 13.07-14.45L13.07-14.45L13.07-14.45Q10.23-15.71 8.42-16.76L8.42-16.76L8.42-16.76Q6.60-17.82 5.35-19.57L5.35-19.57L5.35-19.57Q4.09-21.32 4.09-23.83L4.09-23.83L4.09-23.83Q4.09-26.47 5.51-28.58L5.51-28.58L5.51-28.58Q6.93-30.69 9.54-31.94L9.54-31.94L9.54-31.94Q12.14-33.20 15.64-33.20L15.64-33.20ZM59.47-32.87L59.27-16.17L59.27-11.42L59.27-11.42Q59.33-5.81 55.87-2.71L55.87-2.71L55.87-2.71Q52.40 0.40 45.94 0.40L45.94 0.40L45.94 0.40Q39.53 0.40 36.17-2.67L36.17-2.67L36.17-2.67Q32.80-5.74 32.93-11.42L32.93-11.42L33-16.43L32.93-32.87L37.88-32.87L37.62-12.21L37.62-12.21Q37.55-8.05 39.70-5.94L39.70-5.94L39.70-5.94Q41.84-3.83 46.13-3.83L46.13-3.83L46.13-3.83Q50.36-3.83 52.54-5.94L52.54-5.94L52.54-5.94Q54.71-8.05 54.65-12.21L54.65-12.21L54.45-32.87L59.47-32.87ZM81.44-32.93L81.44-32.93Q86.66-32.93 89.46-30.43L89.46-30.43L89.46-30.43Q92.27-27.92 92.27-23.17L92.27-23.17L92.27-23.17Q92.27-17.62 88.74-14.49L88.74-14.49L88.74-14.49Q85.21-11.35 79.00-11.35L79.00-11.35L74.98-11.35L74.98-10.30L75.11 0L70.22 0L70.42-9.90L70.22-32.87L81.44-32.93ZM80.59-15.18L80.59-15.18Q87.12-16.30 87.12-22.77L87.12-22.77L87.12-22.77Q87.12-25.87 85.37-27.39L85.37-27.39L85.37-27.39Q83.62-28.91 80.12-29.04L80.12-29.04L75.11-28.97L75.04-15.31L80.59-15.18ZM112.20-32.93L112.20-32.93Q117.41-32.93 120.22-30.43L120.22-30.43L120.22-30.43Q123.02-27.92 123.02-23.17L123.02-23.17L123.02-23.17Q123.02-17.62 119.49-14.49L119.49-14.49L119.49-14.49Q115.96-11.35 109.76-11.35L109.76-11.35L105.73-11.35L105.73-10.30L105.86 0L100.98 0L101.18-9.90L100.98-32.87L112.20-32.93ZM111.34-15.18L111.34-15.18Q117.88-16.30 117.88-22.77L117.88-22.77L117.88-22.77Q117.88-25.87 116.13-27.39L116.13-27.39L116.13-27.39Q114.38-28.91 110.88-29.04L110.88-29.04L105.86-28.97L105.80-15.31L111.34-15.18ZM149.16-4.16L149.42-3.70L149.09 0L131.60 0L131.80-9.90L131.60-32.87L136.55-32.87L136.36-10.30L136.49-4.16L149.16-4.16ZM164.67-11.48L164.60-9.44L164.80 0L159.85 0L160.12-9.44L160.05-11.48L148.90-32.87L154.31-32.87L154.97-30.95L162.36-16.83L162.69-16.83L170.74-30.76L171.60-32.87L176.88-32.87L164.67-11.48ZM216.02-32.87L219.38 0L214.96 0L214.24-10.03L212.45-25.21L212.06-25.21L202.62-3.70L198.73-3.70L189.82-25.21L189.42-25.21L187.70-10.43L186.78 0L182.56 0L186.19-32.87L191.93-32.87L193.58-27.92L200.77-10.23L201.17-10.23L208.69-28.18L210.41-32.87L216.02-32.87ZM240.77-3.96L249.55-4.22L249.94-3.83L249.48 0L229.48 0L229.68-9.90L229.48-32.87L249.61-32.87L249.94-32.47L249.55-28.64L241.23-28.91L234.37-28.84L234.30-18.88L240.83-18.81L246.58-19.01L246.91-18.55L246.51-14.65L240.44-14.85L234.30-14.78L234.23-10.30L234.30-4.03L240.77-3.96ZM273.31-13.27L273.31-13.27Q277.33-7.13 282.22-1.19L282.22-1.19L282.15-0.53L282.15-0.53Q279.38 0.33 277.60 0.46L277.60 0.46L276.74-0.07L276.74-0.07Q271.72-7.66 269.15-12.01L269.15-12.01L262.94-11.95L262.94-10.30L263.08 0L258.19 0L258.39-9.90L258.19-32.87L269.41-32.93L269.41-32.93Q274.63-32.93 277.43-30.49L277.43-30.49L277.43-30.49Q280.24-28.05 280.24-23.43L280.24-23.43L280.24-23.43Q280.24-20.06 278.42-17.42L278.42-17.42L278.42-17.42Q276.61-14.78 273.31-13.27L273.31-13.27ZM263.08-28.91L263.01-16.04L269.21-15.84L269.21-15.84Q275.09-17.49 275.09-23.03L275.09-23.03L275.09-23.03Q275.09-25.94 273.37-27.39L273.37-27.39L273.37-27.39Q271.66-28.84 268.16-28.97L268.16-28.97L263.08-28.91Z" fill="#ffffff"></path></g></g><style>text {
  font-size: 64px;
  font-family: Arial Black;
  dominant-baseline: central;
  text-anchor: middle;
}</style></svg>